<?xml version="1.0" encoding="utf-8"?>
<!-- Generator: Adobe Illustrator 26.0.1, SVG Export Plug-In . SVG Version: 6.00 Build 0)  -->
<svg version="1.0" id="Layer_1" xmlns="http://www.w3.org/2000/svg" xmlns:xlink="http://www.w3.org/1999/xlink" x="0px" y="0px"
	 viewBox="0 0 12 12" style="enable-background:new 0 0 12 12;" xml:space="preserve">
<style type="text/css">
	.st0{opacity:0.4;fill:#000000;}
	.st1{fill:#000000;}
</style>
<path class="st0" d="M7.299387,9.3333435C7.2645135,9.403019,7.2529597,9.4726954,7.2529597,9.5539951v0.6503334H4.0708995
	V9.5539951c0-0.0812998-0.0231781-0.1509762-0.0464272-0.2206516H7.299387z M10.1097469,4.0377531H8.5420017
	c-0.1277275,0-0.2322769,0.0929251-0.2322769,0.2206526v2.8219848c0,0.1277986,0.1045494,0.2322774,0.2322769,0.2322774h1.5677452
	c0.1277285,0,0.2322779-0.1044788,0.2322779-0.2322774V4.2584057C10.3420248,4.1306782,10.2374754,4.0377531,10.1097469,4.0377531z
	 M7.8336167,1.9125283v0.8826101h0.4993567V1.9125283H7.8336167z M6.5677533,1.9125283v0.8826101h0.4993567V1.9125283H6.5677533z
	 M4.2567492,1.9125283v0.8826101h0.4993567V1.9125283H4.2567492z M2.9908857,1.9125283v0.8826101h0.4993565V1.9125283H2.9908857z
	 M6.0916457,2.8648145H5.2322135L4.1638246,4.432631v3.3793931h0.3832531V4.7577624
	c0-0.0813007,0.0580516-0.1393523,0.1393523-0.1393523c0.0813003,0,0.1509767,0.0580516,0.1509767,0.1393523v3.0542617h0.3019528
	V3.8867767c0-0.0813005,0.0580516-0.1393521,0.1393518-0.1393521c0.0813007,0,0.1509767,0.0580516,0.1509767,0.1393521v3.9252474
	h0.4761076V3.8867767c0-0.0813005,0.0580516-0.1393521,0.1393523-0.1393521c0.0813003,0,0.1509762,0.0580516,0.1509762,0.1393521
	v3.9252474h0.2903285V4.7577624c0-0.0813007,0.0696764-0.1393523,0.1509767-0.1393523
	c0.0813007,0,0.1393518,0.0580516,0.1393518,0.1393523v3.0542617h0.3948784V4.432631L6.0916457,2.8648145z M2.2244494,8.1023531
	v0.7548828h0.2322772c0.0580513-0.3135777,0.3251309-0.5574799,0.6503329-0.5574799h5.1097403
	c0.325202,0,0.5922813,0.2439022,0.6503334,0.5574799h0.2206516V8.1023531H2.2244494z M9.5523396,9.1475639H7.9497199
	c-0.2322769,0-0.4064317,0.1857796-0.4064317,0.4064312v1.1381369h2.4154825V9.5539951
	C9.9587708,9.3333435,9.7729921,9.1475639,9.5523396,9.1475639z M3.3741391,9.1475639H1.7715199
	c-0.2206526,0-0.4064316,0.1857796-0.4064316,0.4064312v1.1381369h2.4154825V9.5539951
	C3.7805707,9.3333435,3.6064162,9.1475639,3.3741391,9.1475639z"/>
<path class="st1" d="M4.8900709,4.2696047c0,0.1100783-0.0892391,0.1993175-0.1993175,0.1993175
	c-0.1100779,0-0.199317-0.0892391-0.199317-0.1993175c0-0.1100779,0.0892391-0.199317,0.199317-0.199317
	C4.8008318,4.0702877,4.8900709,4.1595268,4.8900709,4.2696047z M5.2790661,3.1975298
	c-0.1100783,0-0.1993175,0.0892391-0.1993175,0.1993175c0,0.1100781,0.0892391,0.1993172,0.1993175,0.1993172
	c0.1100779,0,0.199317-0.0892391,0.199317-0.1993172C5.4783831,3.2867689,5.3891439,3.1975298,5.2790661,3.1975298z
	 M6.6367912,4.0702877c-0.1100779,0-0.1993175,0.0892391-0.1993175,0.199317c0,0.1100783,0.0892396,0.1993175,0.1993175,0.1993175
	c0.1100783,0,0.1993175-0.0892391,0.1993175-0.1993175C6.8361087,4.1595268,6.7468696,4.0702877,6.6367912,4.0702877z
	 M6.0485501,3.1975298c-0.1100783,0-0.1993175,0.0892391-0.1993175,0.1993175c0,0.1100781,0.0892391,0.1993172,0.1993175,0.1993172
	c0.1100779,0,0.199317-0.0892391,0.199317-0.1993172C6.2478671,3.2867689,6.158628,3.1975298,6.0485501,3.1975298z
	 M10.6323528,4.2584057v2.8219848c0,0.290329-0.2322769,0.5226059-0.5226059,0.5226059H8.5420017
	c-0.290329,0-0.5226059-0.2322769-0.5226059-0.5226059V5.9655743H7.461988v1.8464499h1.7651496
	c0.0812998,0,0.1509762,0.0696764,0.1509762,0.1509767v0.8942351h0.1742258c0.3832531,0,0.6967602,0.3135061,0.6967602,0.6967592
	v1.2774887c0,0.0812292-0.0696764,0.1509762-0.1509771,0.1509762H8.8903818v0.1974039h0.2439013
	c0.0813007,0,0.1509762,0.0696764,0.1509762,0.1509762c0,0.0813007-0.0696754,0.1393518-0.1509762,0.1393518H8.3561516
	c-0.0813007,0-0.1393518-0.0580511-0.1393518-0.1393518c0-0.0812998,0.0580511-0.1509762,0.1393518-0.1509762h0.2439013V10.98246
	H7.392312c-0.0813007,0-0.1393523-0.069747-0.1393523-0.1509762v-0.3368263H4.0708995v0.3368263
	c0,0.0812292-0.0580516,0.1509762-0.1393521,0.1509762H2.7238061v0.1974039h0.2439015
	c0.0812294,0,0.1509764,0.0696764,0.1509764,0.1509762c0,0.0813007-0.069747,0.1393518-0.1509764,0.1393518H2.1779516
	c-0.0696762,0-0.1393521-0.0580511-0.1393521-0.1393518c0-0.0812998,0.0696759-0.1509762,0.1393521-0.1509762h0.2555258V10.98246
	H1.2257363c-0.0813005,0-0.1509765-0.069747-0.1509765-0.1509762V9.5539951c0-0.3832531,0.3135066-0.6967592,0.6967602-0.6967592
	h0.162601V7.9630008c0-0.0813003,0.0696759-0.1509767,0.1509764-0.1509767h1.7883985V4.3861332
	c0-0.0348024,0.0116243-0.0580516,0.0232489-0.0812297l0.5226054-0.7665069H2.4682801
	c-0.0812297,0-0.1509056-0.0580516-0.1509056-0.1393521V2.9344904c0-0.0812297,0.0696759-0.1393521,0.1509056-0.1393521H2.700557
	v-1.021962c0-0.0812297,0.0696762-0.1509765,0.1509767-0.1509765h0.3135774l0.4877322-0.7780607H2.8515337
	c-0.0813005,0-0.1509767-0.069676-0.1509767-0.139352c0-0.0813005,0.0696762-0.1509765,0.1509767-0.1509765h5.6324158
	c0.0696764,0,0.1393528,0.069676,0.1393528,0.1509765c0,0.069676-0.0696764,0.139352-0.1393528,0.139352H7.6710157
	L8.170373,1.6221998h0.3135767c0.0696764,0,0.1393528,0.0697469,0.1393528,0.1509765v1.021962h0.2322054
	c0.0813007,0,0.1509771,0.0581224,0.1509771,0.1393521v0.4645541c0,0.0813005-0.0696764,0.1393521-0.1509771,0.1393521H6.9161334
	l0.5109811,0.7665069C7.4503632,4.3280816,7.461988,4.3513308,7.461988,4.3861332v0.7084556h0.5574079V4.2584057
	c0-0.2787042,0.2322769-0.5109811,0.5226059-0.5109811h1.5677452C10.4000759,3.7474246,10.6323528,3.9797015,10.6323528,4.2584057z
	 M6.6026268,3.0854671L6.71873,3.2480681h1.997426v-0.162601H6.6026268z M7.0671101,2.7951384V1.9125283H6.5677533v0.8826101
	H7.0671101z M7.8336167,2.7951384h0.4993567V1.9125283H7.8336167V2.7951384z M6.6374292,0.8441391l0.2787042,0.7780607h0.2903285
	c0.0813003,0,0.1509767,0.0697469,0.1509767,0.1509765v1.021962h0.1858497v-1.021962
	c0-0.0812297,0.0696759-0.1509765,0.1509056-0.1509765h0.1277986L7.3226357,0.8441391H6.6374292z M6.0916457,2.574486h0.0812297
	c0.0464978,0,0.0813003,0.0232489,0.1045494,0.0581224V1.7731763c0-0.0812297,0.0696759-0.1509765,0.1509762-0.1509765h0.1857791
	L6.3238516,0.8441391H6.0916457V2.574486z M5.522542,2.574486h0.2787752V0.8441391H5.522542V2.574486z M4.7096786,1.6221998
	h0.1857791c0.0813007,0,0.1509767,0.0697469,0.1509767,0.1509765v0.8594321
	C5.0696836,2.5977349,5.1161103,2.574486,5.1509838,2.574486h0.0812297V0.8441391H5.0000076L4.7096786,1.6221998z
	 M4.2567492,1.9125283v0.8826101h0.4993567V1.9125283H4.2567492z M3.5018668,1.6221998h0.1277275
	c0.0813005,0,0.1509764,0.0697469,0.1509764,0.1509765v1.021962h0.1858499v-1.021962
	c0-0.0812297,0.0696759-0.1509765,0.1509767-0.1509765h0.2903285L4.68643,0.8441391H4.0012236L3.5018668,1.6221998z
	 M2.9908857,2.7951384h0.4993565V1.9125283H2.9908857V2.7951384z M4.6167541,3.2480681l0.1161027-0.162601H2.607703v0.162601
	H4.6167541z M4.1638246,7.8120241h0.3832531V4.7577624c0-0.0813007,0.0580516-0.1393523,0.1393523-0.1393523
	c0.0813003,0,0.1509767,0.0580516,0.1509767,0.1393523v3.0542617h0.3019528V3.8867767
	c0-0.0813005,0.0580516-0.1393521,0.1393518-0.1393521c0.0813007,0,0.1509767,0.0580516,0.1509767,0.1393521v3.9252474h0.4761076
	V3.8867767c0-0.0813005,0.0580516-0.1393521,0.1393523-0.1393521c0.0813003,0,0.1509762,0.0580516,0.1509762,0.1393521v3.9252474
	h0.2903285V4.7577624c0-0.0813007,0.0696764-0.1393523,0.1509767-0.1393523c0.0813007,0,0.1393518,0.0580516,0.1393518,0.1393523
	v3.0542617h0.3948784V4.432631L6.0916457,2.8648145H5.2322135L4.1638246,4.432631V7.8120241z M3.7805707,9.5539951
	c0-0.2206516-0.1741545-0.4064312-0.4064317-0.4064312H1.7715199c-0.2206526,0-0.4064316,0.1857796-0.4064316,0.4064312v1.1381369
	h2.4154825V9.5539951z M7.299387,9.3333435H4.0244722C4.0477214,9.403019,4.0708995,9.4726954,4.0708995,9.5539951v0.6503334
	h3.1820602V9.5539951C7.2529597,9.4726954,7.2645135,9.403019,7.299387,9.3333435z M7.4967904,9.0430145
	c0.1161737-0.1161032,0.2787042-0.1857786,0.4529295-0.1857786h0.6039062
	C8.4955034,8.7062588,8.3794003,8.590085,8.2167997,8.590085H3.1070595c-0.162601,0-0.2787039,0.1161737-0.3368263,0.2671509
	h0.6039059c0.1742256,0,0.3367558,0.0696754,0.4529297,0.1857786H7.4967904z M7.9497199,9.1475639
	c-0.2322769,0-0.4064317,0.1857796-0.4064317,0.4064312v1.1381369h2.4154825V9.5539951
	c0-0.2206516-0.1857786-0.4064312-0.4064312-0.4064312H7.9497199z M2.2244494,8.1023531v0.7548828h0.2322772
	c0.0580513-0.3135777,0.3251309-0.5574799,0.6503329-0.5574799h5.1097403c0.325202,0,0.5922813,0.2439022,0.6503334,0.5574799
	h0.2206516V8.1023531H2.2244494z M8.0193958,5.3849173H7.461988v0.2903285h0.5574079V5.3849173z M10.3420248,4.2584057
	c0-0.1277275-0.1045494-0.2206526-0.2322779-0.2206526H8.5420017c-0.1277275,0-0.2322769,0.0929251-0.2322769,0.2206526v2.8219848
	c0,0.1277986,0.1045494,0.2322774,0.2322769,0.2322774h1.5677452c0.1277285,0,0.2322779-0.1044788,0.2322779-0.2322774V4.2584057z
	 M10.2467604,4.2694631v2.2313337c0,0.0805206-0.0646439,0.1451645-0.1451645,0.1451645H8.5512867
	c-0.0805206,0-0.1451635-0.0646439-0.1451635-0.1451645V4.2694631c0-0.0799537,0.0646429-0.145164,0.1451635-0.145164h1.5503092
	C10.1821165,4.124299,10.2467604,4.1895094,10.2467604,4.2694631z M9.9564314,4.4146276H8.6964512v1.9410048h1.2599802V4.4146276z
	 M8.7401142,6.7775164c-0.1098661,0-0.1989632,0.0890265-0.1989632,0.1988921c0,0.1098652,0.089097,0.1988916,0.1989632,0.1988916
	c0.1098652,0,0.1988916-0.0890265,0.1988916-0.1988916C8.9390059,6.8665428,8.8499794,6.7775164,8.7401142,6.7775164z
	 M9.3263702,6.7775164c-0.1098652,0-0.1988916,0.0890265-0.1988916,0.1988921c0,0.1098652,0.0890265,0.1988916,0.1988916,0.1988916
	c0.1098661,0,0.1988926-0.0890265,0.1988926-0.1988916C9.5252628,6.8665428,9.4362364,6.7775164,9.3263702,6.7775164z
	 M9.9022074,6.7775164c-0.1098652,0-0.1988916,0.0890265-0.1988916,0.1988921c0,0.1098652,0.0890265,0.1988916,0.1988916,0.1988916
	c0.1098661,0,0.1988926-0.0890265,0.1988926-0.1988916C10.1011,6.8665428,10.0120735,6.7775164,9.9022074,6.7775164z"/>
</svg>
