<?xml version="1.0" encoding="utf-8"?>
<!-- Generator: Adobe Illustrator 26.0.1, SVG Export Plug-In . SVG Version: 6.00 Build 0)  -->
<svg version="1.0" id="Layer_1" xmlns="http://www.w3.org/2000/svg" xmlns:xlink="http://www.w3.org/1999/xlink" x="0px" y="0px"
	 viewBox="0 0 12 12" style="enable-background:new 0 0 12 12;" xml:space="preserve">
<style type="text/css">
	.st0{opacity:0.4;}
</style>
<path class="st0" d="M5.7749023,4.3735352h0.4501953v0.4506836H5.7749023V4.3735352z M10.6199951,3.0599976v5.8800049
	c0,0.4400024-0.3599854,0.789978-0.789978,0.789978H2.1699829c-0.4299927,0-0.789978-0.3499756-0.789978-0.789978V3.0599976
	c0-0.4400024,0.3599854-0.789978,0.789978-0.789978h7.6600342C10.2600098,2.2700195,10.6199951,2.6199951,10.6199951,3.0599976z
	 M9.9775391,4.5991211c0-0.4550781-0.3701172-0.8256836-0.8251953-0.8256836c-0.2626953,0-0.5,0.1264648-0.6621094,0.3500977
	H7.1660156c-0.0605469-0.3959961-0.4033203-0.7001953-0.815918-0.7001953H5.6499023
	c-0.4125977,0-0.7558594,0.3041992-0.8164062,0.7001953H3.5092773C3.3476562,3.8999023,3.1098633,3.7734375,2.8476562,3.7734375
	c-0.4550781,0-0.8256836,0.3706055-0.8256836,0.8256836s0.3706055,0.8251953,0.8256836,0.8251953
	c0.262207,0,0.5-0.1264648,0.6616211-0.3500977h0.262207c-0.2963867,0.315918-0.5068359,0.7080078-0.6171875,1.1518555
	c-0.4350586,0.0229492-0.7817383,0.3842773-0.7817383,0.824707v0.7001953c0,0.4550781,0.3701172,0.8261719,0.8251953,0.8261719
	h0.7006836c0.4550781,0,0.8256836-0.3710938,0.8256836-0.8261719V7.0507812c0-0.3686523-0.2460938-0.6821289-0.5932617-0.7822266
	c0.1459961-0.3876953,0.440918-0.7075195,0.8164062-0.8852539c0.1479492,0.2412109,0.4116211,0.3916016,0.7026367,0.3916016
	h0.7001953c0.2910156,0,0.5546875-0.1503906,0.7026367-0.3916016c0.3759766,0.1777344,0.6708984,0.4975586,0.8164062,0.8852539
	C7.5224609,6.3686523,7.2763672,6.6821289,7.2763672,7.0507812v0.7001953c0,0.4550781,0.3701172,0.8261719,0.8251953,0.8261719
	h0.7001953c0.4550781,0,0.8261719-0.3710938,0.8261719-0.8261719V7.0507812c0-0.4404297-0.3466797-0.8017578-0.7822266-0.824707
	C8.7353516,5.7822266,8.5244141,5.3901367,8.2285156,5.0742188h0.2617188
	c0.1621094,0.2236328,0.3994141,0.3500977,0.6621094,0.3500977C9.6074219,5.4243164,9.9775391,5.0541992,9.9775391,4.5991211z
	 M3.3227539,7.6259766h0.4506836V7.1757812H3.3227539V7.6259766z M8.2265625,7.6259766h0.4501953V7.1757812H8.2265625V7.6259766z"/>
<path d="M9.1523438,3.7734375c-0.2626953,0-0.5,0.1264648-0.6621094,0.3500977H7.1660156
	c-0.0605469-0.3959961-0.4033203-0.7001953-0.815918-0.7001953H5.6499023c-0.4125977,0-0.7558594,0.3041992-0.8164062,0.7001953
	H3.5092773C3.3476562,3.8999023,3.1098633,3.7734375,2.8476562,3.7734375c-0.4550781,0-0.8256836,0.3706055-0.8256836,0.8256836
	s0.3706055,0.8251953,0.8256836,0.8251953c0.262207,0,0.5-0.1264648,0.6616211-0.3500977h0.262207
	c-0.2963867,0.315918-0.5068359,0.7080078-0.6171875,1.1518555c-0.4350586,0.0229492-0.7817383,0.3842773-0.7817383,0.824707
	v0.7001953c0,0.4550781,0.3701172,0.8261719,0.8251953,0.8261719h0.7006836c0.4550781,0,0.8256836-0.3710938,0.8256836-0.8261719
	V7.0507812c0-0.3686523-0.2460938-0.6821289-0.5932617-0.7822266c0.1459961-0.3876953,0.440918-0.7075195,0.8164062-0.8852539
	c0.1479492,0.2412109,0.4116211,0.3916016,0.7026367,0.3916016h0.7001953c0.2910156,0,0.5546875-0.1503906,0.7026367-0.3916016
	c0.3759766,0.1777344,0.6708984,0.4975586,0.8164062,0.8852539C7.5224609,6.3686523,7.2763672,6.6821289,7.2763672,7.0507812
	v0.7001953c0,0.4550781,0.3701172,0.8261719,0.8251953,0.8261719h0.7001953c0.4550781,0,0.8261719-0.3710938,0.8261719-0.8261719
	V7.0507812c0-0.4404297-0.3466797-0.8017578-0.7822266-0.824707C8.7353516,5.7822266,8.5244141,5.3901367,8.2285156,5.0742188
	h0.2617188c0.1621094,0.2236328,0.3994141,0.3500977,0.6621094,0.3500977c0.4550781,0,0.8251953-0.3701172,0.8251953-0.8251953
	S9.6074219,3.7734375,9.1523438,3.7734375z M3.7734375,7.6259766H3.3227539V7.1757812h0.4506836V7.6259766z M6.2250977,4.8242188
	H5.7749023V4.3735352h0.4501953V4.8242188z M8.6767578,7.1757812v0.4501953H8.2265625V7.1757812H8.6767578z M9.8300171,1.2700195
	H2.1699829c-0.9799805,0-1.789978,0.7999878-1.789978,1.789978v5.8800049c0,0.9899902,0.8099976,1.789978,1.789978,1.789978
	h7.6600342c0.9799805,0,1.789978-0.7999878,1.789978-1.789978V3.0599976
	C11.6199951,2.0700073,10.8099976,1.2700195,9.8300171,1.2700195z M10.6199951,8.9400024
	c0,0.4400024-0.3599854,0.789978-0.789978,0.789978H2.1699829c-0.4299927,0-0.789978-0.3499756-0.789978-0.789978V3.0599976
	c0-0.4400024,0.3599854-0.789978,0.789978-0.789978h7.6600342c0.4299927,0,0.789978,0.3499756,0.789978,0.789978V8.9400024z"/>
</svg>
