<?xml version="1.0" encoding="utf-8"?>
<!-- Generator: Adobe Illustrator 26.0.1, SVG Export Plug-In . SVG Version: 6.00 Build 0)  -->
<svg version="1.1" id="Layer_1" xmlns="http://www.w3.org/2000/svg" xmlns:xlink="http://www.w3.org/1999/xlink" x="0px" y="0px"
	 viewBox="0 0 24 25" style="enable-background:new 0 0 24 25;" xml:space="preserve">
<style type="text/css">
	.st0{clip-path:url(#SVGID_00000018197860255620936460000003472842194989566336_);}
	.st1{fill-rule:evenodd;clip-rule:evenodd;fill:#330000;}
	.st2{opacity:0.4;fill-rule:evenodd;clip-rule:evenodd;fill:#FFFFFF;enable-background:new    ;}
	.st3{fill:#FF9A00;}
</style>
<g>
	<defs>
		<rect id="SVGID_1_" y="0" width="24" height="24"/>
	</defs>
	<clipPath id="SVGID_00000167372788057541193240000005643299204260408962_">
		<use xlink:href="#SVGID_1_"  style="overflow:visible;"/>
	</clipPath>
	<g style="clip-path:url(#SVGID_00000167372788057541193240000005643299204260408962_);">
		<path class="st1" d="M6.1,0h8L21,7.1v13.8c0,1.7-1.4,3.1-3.1,3.1H6.1C4.4,24,3,22.6,3,20.9V3.1C3,1.4,4.4,0,6.1,0L6.1,0z"/>
		<path class="st2" d="M14.2,0v7H21L14.2,0z"/>
		<path class="st3" d="M7.7,18.8h1.6c0,0,0.1,0,0.1-0.1L9.9,17h1.8l0.5,1.7c0,0,0.1,0.1,0.1,0.1h1.7c0.1,0,0.1,0,0.1-0.1
			c0,0,0,0,0,0l-2.1-6.8c0,0,0-0.1-0.1-0.1h-2c0,0-0.1,0-0.1,0.1l-2.1,6.8C7.6,18.7,7.6,18.7,7.7,18.8C7.7,18.8,7.7,18.8,7.7,18.8z
			 M15.5,13.2c0.5,0,0.9-0.4,0.9-0.9c0-0.5-0.4-0.9-0.9-0.9c-0.3,0-0.5,0.1-0.7,0.3c-0.2,0.2-0.2,0.4-0.2,0.6c0,0.2,0.1,0.4,0.2,0.6
			C15,13.2,15.2,13.2,15.5,13.2z M14.7,13.7C14.7,13.7,14.6,13.7,14.7,13.7l-0.1,5c0,0.1,0,0.1,0.1,0.1h1.5c0.1,0,0.1,0,0.1-0.1
			v-4.9c0-0.1,0-0.1-0.1-0.1H14.7z M11.4,15.7h-1.2l0.4-1.3c0.1-0.2,0.1-0.5,0.2-0.8c0-0.1,0-0.1,0-0.2c0.1,0.3,0.2,0.7,0.3,1
			L11.4,15.7z"/>
	</g>
</g>
</svg>
