<?xml version="1.0" encoding="utf-8"?>
<!-- Generator: Adobe Illustrator 26.0.1, SVG Export Plug-In . SVG Version: 6.00 Build 0)  -->
<svg version="1.1" id="Layer_1" xmlns="http://www.w3.org/2000/svg" xmlns:xlink="http://www.w3.org/1999/xlink" x="0px" y="0px"
	 viewBox="0 0 24 25" style="enable-background:new 0 0 24 25;" xml:space="preserve">
<style type="text/css">
	.st0{fill-rule:evenodd;clip-rule:evenodd;fill:#FFB600;}
	.st1{opacity:0.4;fill-rule:evenodd;clip-rule:evenodd;fill:#FFFFFF;enable-background:new    ;}
	.st2{fill:#FFFFFF;}
</style>
<g>
	<path class="st0" d="M6.4,0h8l6.8,7.1v13.8c0,1.7-1.4,3.1-3.1,3.1H6.4c-1.7,0-3.1-1.4-3.1-3.1V3.1C3.3,1.4,4.7,0,6.4,0L6.4,0z"/>
	<path class="st1" d="M14.4,0v7h6.8L14.4,0z"/>
</g>
<g>
	<path class="st2" d="M8.4,16.2l1.2,0.4c-0.1,0.3-0.2,0.6-0.4,0.8s-0.4,0.4-0.6,0.5C8.3,17.9,8,18,7.6,18c-0.5,0-0.8-0.1-1.1-0.2
		c-0.3-0.1-0.6-0.4-0.8-0.7c-0.2-0.3-0.3-0.8-0.3-1.3c0-0.7,0.2-1.3,0.6-1.6c0.4-0.4,0.9-0.6,1.6-0.6c0.5,0,1,0.1,1.3,0.3
		s0.5,0.6,0.7,1l-1.2,0.3c0-0.1-0.1-0.2-0.1-0.3c-0.1-0.1-0.2-0.2-0.3-0.2c-0.1-0.1-0.2-0.1-0.4-0.1c-0.3,0-0.5,0.1-0.7,0.4
		c-0.1,0.2-0.2,0.5-0.2,0.8c0,0.5,0.1,0.8,0.2,1S7.3,17,7.5,17c0.3,0,0.4-0.1,0.6-0.2C8.2,16.6,8.3,16.4,8.4,16.2z"/>
	<path class="st2" d="M10.2,13.6h2c0.4,0,0.7,0.1,0.9,0.2c0.2,0.1,0.4,0.3,0.6,0.5s0.3,0.4,0.3,0.7s0.1,0.5,0.1,0.8
		c0,0.5-0.1,0.8-0.2,1.1s-0.2,0.5-0.4,0.6c-0.2,0.2-0.4,0.3-0.6,0.3c-0.3,0.1-0.6,0.1-0.8,0.1h-2V13.6z M11.5,14.6v2.3h0.3
		c0.3,0,0.5,0,0.6-0.1c0.1-0.1,0.2-0.2,0.3-0.3c0.1-0.2,0.1-0.4,0.1-0.7c0-0.5-0.1-0.8-0.2-0.9s-0.4-0.3-0.7-0.3H11.5z"/>
	<path class="st2" d="M14.9,17.9v-4.3h2.2c0.4,0,0.7,0,0.9,0.1s0.4,0.2,0.5,0.4c0.1,0.2,0.2,0.4,0.2,0.7c0,0.2-0.1,0.4-0.2,0.6
		c-0.1,0.2-0.2,0.3-0.4,0.4c-0.1,0.1-0.3,0.1-0.5,0.2c0.2,0.1,0.3,0.1,0.3,0.2c0,0,0.1,0.1,0.2,0.2c0.1,0.1,0.2,0.2,0.2,0.3l0.6,1.2
		h-1.5l-0.7-1.3c-0.1-0.2-0.2-0.3-0.2-0.3c-0.1-0.1-0.2-0.1-0.3-0.1h-0.1v1.7H14.9z M16.2,15.4h0.6c0.1,0,0.2,0,0.4-0.1
		c0.1,0,0.2-0.1,0.2-0.1c0.1-0.1,0.1-0.2,0.1-0.2c0-0.1,0-0.2-0.1-0.3s-0.3-0.1-0.5-0.1h-0.6V15.4z"/>
</g>
</svg>
