<?xml version="1.0" encoding="utf-8"?>
<!-- Generator: Adobe Illustrator 26.0.1, SVG Export Plug-In . SVG Version: 6.00 Build 0)  -->
<svg version="1.1" id="Layer_1" xmlns="http://www.w3.org/2000/svg" xmlns:xlink="http://www.w3.org/1999/xlink" x="0px" y="0px"
	 viewBox="0 0 24 25" style="enable-background:new 0 0 24 25;" xml:space="preserve">
<style type="text/css">
	.st0{fill-rule:evenodd;clip-rule:evenodd;fill:#98AD1E;}
	.st1{opacity:0.4;fill-rule:evenodd;clip-rule:evenodd;fill:#FFFFFF;enable-background:new    ;}
	.st2{fill:#FFFFFF;}
</style>
<g>
	<path class="st0" d="M6.2,0h8l6.8,7.1v13.8c0,1.7-1.4,3.1-3.1,3.1H6.2c-1.7,0-3.1-1.4-3.1-3.1V3.1C3.1,1.4,4.5,0,6.2,0L6.2,0z"/>
	<path class="st1" d="M14.2,0v7h6.8L14.2,0z"/>
</g>
<g>
	<path class="st2" d="M5.7,13.6h2c0.4,0,0.7,0.1,0.9,0.2c0.2,0.1,0.4,0.3,0.6,0.5s0.3,0.4,0.3,0.7s0.1,0.5,0.1,0.8
		c0,0.5-0.1,0.8-0.2,1.1s-0.2,0.5-0.4,0.6c-0.2,0.2-0.4,0.3-0.6,0.3c-0.3,0.1-0.6,0.1-0.8,0.1h-2V13.6z M7,14.6v2.3h0.3
		c0.3,0,0.5,0,0.6-0.1c0.1-0.1,0.2-0.2,0.3-0.3c0.1-0.2,0.1-0.4,0.1-0.7c0-0.5-0.1-0.8-0.2-0.9c-0.1-0.2-0.4-0.3-0.7-0.3H7z"/>
	<path class="st2" d="M10.1,16.5l1.3-0.1c0,0.2,0.1,0.4,0.2,0.5c0.1,0.2,0.3,0.3,0.6,0.3c0.2,0,0.3,0,0.4-0.1
		c0.1-0.1,0.2-0.2,0.2-0.3c0-0.1,0-0.2-0.1-0.3s-0.3-0.2-0.7-0.2c-0.6-0.1-1-0.3-1.2-0.5c-0.2-0.2-0.4-0.5-0.4-0.8
		c0-0.2,0.1-0.4,0.2-0.6c0.1-0.2,0.3-0.4,0.6-0.5c0.3-0.1,0.6-0.2,1.1-0.2c0.5,0,1,0.1,1.3,0.3c0.3,0.2,0.5,0.5,0.5,1l-1.3,0.1
		c0-0.2-0.1-0.3-0.2-0.4c-0.1-0.1-0.3-0.1-0.4-0.1c-0.2,0-0.3,0-0.3,0.1c-0.1,0.1-0.1,0.1-0.1,0.2c0,0.1,0,0.1,0.1,0.2
		c0.1,0.1,0.2,0.1,0.4,0.2c0.6,0.1,1,0.3,1.2,0.4c0.3,0.1,0.4,0.3,0.5,0.5c0.1,0.2,0.2,0.4,0.2,0.6c0,0.3-0.1,0.5-0.2,0.8
		s-0.4,0.4-0.6,0.5c-0.3,0.1-0.6,0.2-1,0.2c-0.7,0-1.2-0.1-1.5-0.4S10.2,16.9,10.1,16.5z"/>
	<path class="st2" d="M14.4,13.6h4v1.1h-1.4v3.2h-1.3v-3.2h-1.4V13.6z"/>
</g>
</svg>
