<?xml version="1.0" encoding="utf-8"?>
<!-- Generator: Adobe Illustrator 26.0.1, SVG Export Plug-In . SVG Version: 6.00 Build 0)  -->
<svg version="1.1" id="Layer_1" xmlns="http://www.w3.org/2000/svg" xmlns:xlink="http://www.w3.org/1999/xlink" x="0px" y="0px"
	 viewBox="0 0 24 25" style="enable-background:new 0 0 24 25;" xml:space="preserve">
<style type="text/css">
	.st0{fill-rule:evenodd;clip-rule:evenodd;fill:#4F1BB2;}
	.st1{opacity:0.4;fill-rule:evenodd;clip-rule:evenodd;fill:#FFFFFF;enable-background:new    ;}
	.st2{fill:#FFFFFF;}
</style>
<g>
	<path class="st0" d="M6.3,0h8l6.8,7.1v13.8c0,1.7-1.4,3.1-3.1,3.1H6.3c-1.7,0-3.1-1.4-3.1-3.1V3.1C3.2,1.4,4.6,0,6.3,0L6.3,0z"/>
	<path class="st1" d="M14.3,0v7h6.8L14.3,0z"/>
</g>
<g>
	<path class="st2" d="M5.2,13.6h3.6v0.9H6.5v0.7h2.1v0.9H6.5v0.8h2.3v1H5.2V13.6z"/>
	<path class="st2" d="M9.5,13.6h1.7l0.7,2.6l0.7-2.6h1.7v4.3h-1.1v-3.3l-0.8,3.3h-1l-0.8-3.3v3.3H9.5V13.6z"/>
	<path class="st2" d="M15.2,13.6h2.5c0.4,0,0.7,0.1,1,0.3c0.2,0.2,0.3,0.5,0.3,0.8c0,0.3-0.1,0.5-0.2,0.7c-0.1,0.1-0.3,0.2-0.5,0.3
		c0.3,0.1,0.5,0.2,0.7,0.4s0.2,0.4,0.2,0.7c0,0.2-0.1,0.4-0.2,0.6s-0.2,0.3-0.4,0.4c-0.1,0.1-0.3,0.1-0.5,0.1
		c-0.3,0-0.5,0.1-0.6,0.1h-2.3V13.6z M16.5,15.3h0.6c0.2,0,0.4,0,0.4-0.1c0.1-0.1,0.1-0.2,0.1-0.3c0-0.1,0-0.2-0.1-0.3
		c-0.1-0.1-0.2-0.1-0.4-0.1h-0.6V15.3z M16.5,17h0.7c0.2,0,0.4,0,0.5-0.1c0.1-0.1,0.1-0.2,0.1-0.3c0-0.1,0-0.2-0.1-0.3
		c-0.1-0.1-0.3-0.1-0.5-0.1h-0.7V17z"/>
</g>
</svg>
