<?xml version="1.0" encoding="utf-8"?>
<!-- Generator: Adobe Illustrator 26.0.1, SVG Export Plug-In . SVG Version: 6.00 Build 0)  -->
<svg version="1.1" id="Layer_1" xmlns="http://www.w3.org/2000/svg" xmlns:xlink="http://www.w3.org/1999/xlink" x="0px" y="0px"
	 viewBox="0 0 24 25" style="enable-background:new 0 0 24 25;" xml:space="preserve">
<style type="text/css">
	.st0{fill-rule:evenodd;clip-rule:evenodd;fill:#8E8E8E;}
	.st1{opacity:0.4;fill-rule:evenodd;clip-rule:evenodd;fill:#FFFFFF;enable-background:new    ;}
	.st2{fill:#FFFFFF;}
</style>
<g>
	<g>
		<path class="st0" d="M6.1,0h8L21,7.1v13.8c0,1.7-1.4,3.1-3.1,3.1H6.1C4.4,24,3,22.6,3,20.9V3.1C3,1.4,4.4,0,6.1,0L6.1,0z"/>
		<path class="st1" d="M14.2,0v7H21L14.2,0z"/>
	</g>
	<g>
		<path class="st2" d="M5.7,13.3h3.7v0.9H7.1V15h2.1v0.9H7.1v0.9h2.4v1H5.7V13.3z"/>
		<path class="st2" d="M10.2,13.3h2.3c0.5,0,0.9,0.1,1.1,0.4c0.2,0.2,0.4,0.6,0.4,1c0,0.4-0.1,0.8-0.4,1c-0.3,0.3-0.7,0.4-1.2,0.4
			h-0.7v1.6h-1.4V13.3z M11.6,15.2h0.3c0.3,0,0.4,0,0.6-0.1c0.1-0.1,0.2-0.2,0.2-0.4c0-0.1,0-0.3-0.1-0.4c-0.1-0.1-0.3-0.1-0.5-0.1
			h-0.4V15.2z"/>
		<path class="st2" d="M14.4,16.3l1.3-0.1c0,0.2,0.1,0.4,0.2,0.5c0.1,0.2,0.3,0.3,0.6,0.3c0.2,0,0.3,0,0.5-0.1
			c0.1-0.1,0.2-0.2,0.2-0.3c0-0.1,0-0.2-0.2-0.3c-0.1-0.1-0.3-0.2-0.7-0.3c-0.6-0.1-1-0.3-1.3-0.5c-0.3-0.2-0.4-0.5-0.4-0.9
			c0-0.2,0.1-0.4,0.2-0.6c0.1-0.2,0.3-0.4,0.6-0.5c0.3-0.1,0.6-0.2,1.1-0.2c0.6,0,1,0.1,1.3,0.3c0.3,0.2,0.5,0.5,0.5,1L17,14.6
			c0-0.2-0.1-0.3-0.2-0.4c-0.1-0.1-0.3-0.1-0.5-0.1c-0.2,0-0.3,0-0.4,0.1c-0.1,0.1-0.1,0.1-0.1,0.2c0,0.1,0,0.1,0.1,0.2
			c0.1,0.1,0.2,0.1,0.5,0.2c0.6,0.1,1,0.3,1.3,0.4s0.4,0.3,0.6,0.5c0.1,0.2,0.2,0.4,0.2,0.7c0,0.3-0.1,0.5-0.2,0.8
			c-0.2,0.2-0.4,0.4-0.7,0.5s-0.6,0.2-1.1,0.2c-0.8,0-1.3-0.1-1.6-0.4S14.5,16.7,14.4,16.3z"/>
	</g>
</g>
</svg>
