<?xml version="1.0" encoding="utf-8"?>
<!-- Generator: Adobe Illustrator 26.0.1, SVG Export Plug-In . SVG Version: 6.00 Build 0)  -->
<svg version="1.1" id="Layer_1" xmlns="http://www.w3.org/2000/svg" xmlns:xlink="http://www.w3.org/1999/xlink" x="0px" y="0px"
	 viewBox="0 0 24 25" style="enable-background:new 0 0 24 25;" xml:space="preserve">
<style type="text/css">
	.st0{fill-rule:evenodd;clip-rule:evenodd;fill:#FF7300;}
	.st1{opacity:0.4;fill-rule:evenodd;clip-rule:evenodd;fill:#FFFFFF;enable-background:new    ;}
	.st2{fill:#FFFFFF;}
</style>
<g>
	<path class="st0" d="M6.1,0h8l6.8,7.1v13.8c0,1.7-1.4,3.1-3.1,3.1H6.1C4.4,24,3,22.6,3,20.9V3.1C3,1.4,4.4,0,6.1,0L6.1,0z"/>
	<path class="st1" d="M14.1,0v7h6.8L14.1,0z"/>
</g>
<g>
	<path class="st2" d="M5.8,13.6H8c0.5,0,0.8,0.1,1.1,0.3s0.4,0.6,0.4,1c0,0.4-0.1,0.8-0.4,1c-0.3,0.2-0.7,0.4-1.2,0.4H7.1v1.6H5.8
		V13.6z M7.1,15.5h0.3c0.3,0,0.4,0,0.5-0.1c0.1-0.1,0.2-0.2,0.2-0.3c0-0.1,0-0.2-0.1-0.3c-0.1-0.1-0.3-0.1-0.5-0.1H7.1V15.5z"/>
	<path class="st2" d="M10.1,13.6h3.6v0.9h-2.2v0.7h2.1v0.9h-2.1v0.8h2.3v1h-3.6V13.6z"/>
	<path class="st2" d="M14.2,16.5l1.3-0.1c0,0.2,0.1,0.4,0.2,0.5c0.1,0.2,0.3,0.3,0.6,0.3c0.2,0,0.3,0,0.4-0.1
		c0.1-0.1,0.2-0.2,0.2-0.3c0-0.1,0-0.2-0.1-0.3s-0.3-0.2-0.7-0.2c-0.6-0.1-1-0.3-1.2-0.5c-0.2-0.2-0.4-0.5-0.4-0.8
		c0-0.2,0.1-0.4,0.2-0.6c0.1-0.2,0.3-0.4,0.6-0.5c0.3-0.1,0.6-0.2,1.1-0.2c0.5,0,1,0.1,1.3,0.3c0.3,0.2,0.5,0.5,0.5,1l-1.3,0.1
		c0-0.2-0.1-0.3-0.2-0.4c-0.1-0.1-0.3-0.1-0.4-0.1c-0.2,0-0.3,0-0.3,0.1c-0.1,0.1-0.1,0.1-0.1,0.2c0,0.1,0,0.1,0.1,0.2
		c0.1,0.1,0.2,0.1,0.4,0.2c0.6,0.1,1,0.3,1.2,0.4c0.3,0.1,0.4,0.3,0.5,0.5c0.1,0.2,0.2,0.4,0.2,0.6c0,0.3-0.1,0.5-0.2,0.8
		s-0.4,0.4-0.6,0.5c-0.3,0.1-0.6,0.2-1,0.2c-0.7,0-1.2-0.1-1.5-0.4S14.3,16.9,14.2,16.5z"/>
</g>
</svg>
