<?xml version="1.0" encoding="utf-8"?>
<!-- Generator: Adobe Illustrator 26.0.1, SVG Export Plug-In . SVG Version: 6.00 Build 0)  -->
<svg version="1.1" id="Layer_1" xmlns="http://www.w3.org/2000/svg" xmlns:xlink="http://www.w3.org/1999/xlink" x="0px" y="0px"
	 viewBox="0 0 106 38" style="enable-background:new 0 0 106 38;" xml:space="preserve">
<style type="text/css">
	.st0{clip-path:url(#SVGID_00000075157250152855806570000003289076286116031640_);}
	.st1{fill:#4B0082;}
	.st2{clip-path:url(#SVGID_00000171700628416253157120000009317847236168105386_);}
	.st3{clip-path:url(#SVGID_00000181053576218634812050000007344313120135112594_);}
</style>
<g>
	<g>
		<defs>
			<rect id="SVGID_1_" x="6.4" y="6" width="26.2" height="26"/>
		</defs>
		<clipPath id="SVGID_00000142159470124763622080000013835090325273818264_">
			<use xlink:href="#SVGID_1_"  style="overflow:visible;"/>
		</clipPath>
		<g style="clip-path:url(#SVGID_00000142159470124763622080000013835090325273818264_);">
			<path class="st1" d="M19.4,6.4c-7,0-12.6,5.7-12.6,12.7c0,7,5.7,12.7,12.6,12.7S32,26,32,19C32,12.1,26.3,6.4,19.4,6.4z M19.4,32
				c-7.1,0-12.9-5.8-12.9-13c0-7.2,5.8-13,12.9-13s12.9,5.8,12.9,13C32.3,26.2,26.5,32,19.4,32"/>
		</g>
	</g>
	<g>
		<defs>
			<rect id="SVGID_00000112598019627663479450000004352861395294098088_" x="16.7" y="6" width="7.5" height="16.9"/>
		</defs>
		<clipPath id="SVGID_00000067214252874724153400000005344686123263722930_">
			<use xlink:href="#SVGID_00000112598019627663479450000004352861395294098088_"  style="overflow:visible;"/>
		</clipPath>
		<g style="clip-path:url(#SVGID_00000067214252874724153400000005344686123263722930_);">
			<path class="st1" d="M23.9,22.8C23.9,22.8,23.8,22.8,23.9,22.8c-0.1,0-4.7-1.2-6.4-6.1c-1.7-4.9,1-9.4,2.1-10.5
				c0.1-0.1,0.2-0.1,0.2,0c0.1,0.1,0.1,0.2,0,0.2c-1.1,1.1-3.7,5.5-2.1,10.2c1.6,4.7,6.1,5.9,6.2,5.9c0.1,0,0.1,0.1,0.1,0.2
				C24,22.7,23.9,22.8,23.9,22.8"/>
		</g>
	</g>
	<path class="st1" d="M25.3,21.2C25.3,21.2,25.3,21.2,25.3,21.2c-0.1,0-4.1-1.1-5.6-4.8c-1.8-4.7,1-8.9,2.3-9.9c0.1-0.1,0.2,0,0.2,0
		c0.1,0.1,0,0.2,0,0.2c-1.2,1-4,5-2.2,9.5c1.4,3.6,5.3,4.6,5.3,4.6c0.1,0,0.1,0.1,0.1,0.2C25.5,21.1,25.4,21.2,25.3,21.2"/>
	<path class="st1" d="M26.8,19C26.8,19,26.8,19,26.8,19c-1.1-0.2-2.2-0.7-3-1.4c-2.3-1.8-2.5-4.6-2.3-6.6c0.2-1.3,0.8-3,1.7-4.1
		c0.1-0.1,0.2-0.1,0.2,0c0.1,0.1,0.1,0.2,0,0.2c-0.8,1.1-1.5,2.7-1.6,4c-0.2,1.9-0.1,4.5,2.2,6.3c0.8,0.7,1.8,1.1,2.9,1.3
		c0.1,0,0.1,0.1,0.1,0.2C27,18.9,26.9,19,26.8,19"/>
	<path class="st1" d="M27.8,17c-1.4,0-3-1.2-3.5-2.7c-1-3,1-5.1,2.5-5.7c0.1,0,0.2,0,0.2,0.1c0,0.1,0,0.2-0.1,0.2
		c-1.3,0.5-3.4,2.3-2.4,5.3c0.4,1.3,1.9,2.5,3.2,2.5c0.1,0,0.2,0.1,0.2,0.2C28,16.9,27.9,17,27.8,17"/>
	<path class="st1" d="M28.3,15.4C28.3,15.4,28.3,15.4,28.3,15.4c-0.9-0.3-1.4-0.9-1.7-1.9c-0.3-1,0.1-2.8,2-3.4c0.1,0,0.2,0,0.2,0.1
		c0,0.1,0,0.2-0.1,0.2c-1.6,0.5-2,2.1-1.8,3c0.3,0.9,0.7,1.4,1.5,1.7c0.1,0,0.1,0.1,0.1,0.2C28.4,15.3,28.4,15.4,28.3,15.4"/>
	<path class="st1" d="M10.4,28.3c-0.1,0-0.2-0.1-0.2-0.2c0-0.1,0.1-0.2,0.2-0.2c1.2,0,7.4-0.2,12.1-4.3c5.7-5,6.2-9.9,6.6-12.8
		c0-0.1,0.1-0.2,0.2-0.1c0.1,0,0.1,0.1,0.1,0.2c-0.3,3-0.9,7.9-6.7,13C18,28.1,11.6,28.3,10.4,28.3"/>
	<path class="st1" d="M13,30.2c-0.1,0-0.1-0.1-0.2-0.1c0-0.1,0-0.2,0.1-0.2c2.6-0.4,7.6-1.5,11.8-5.3c3.7-3.4,5.7-7.3,5.8-11.4
		c0-0.1,0.1-0.2,0.2-0.2h0c0.1,0,0.2,0.1,0.2,0.2c0,4.2-2.1,8.2-5.9,11.6C20.8,28.7,15.7,29.9,13,30.2C13,30.2,13,30.2,13,30.2"/>
	<path class="st1" d="M16.4,31.6c-0.1,0-0.1-0.1-0.2-0.1c0-0.1,0-0.2,0.1-0.2c1.4-0.2,6.2-1.1,10.5-5.2c3.7-3.4,5-8.3,5-8.4
		c0-0.1,0.1-0.1,0.2-0.1c0.1,0,0.1,0.1,0.1,0.2c0,0.1-1.3,5.1-5.1,8.5C22.7,30.5,17.8,31.4,16.4,31.6C16.4,31.6,16.4,31.6,16.4,31.6
		"/>
	<path class="st1" d="M16.7,24.2c-1,0-2.3-0.1-3.6-0.3c-3.8-0.6-6.3-2.3-6.3-2.4c-0.1-0.1-0.1-0.2,0-0.2c0.1-0.1,0.1-0.1,0.2,0
		c0,0,2.5,1.7,6.2,2.3c3.9,0.6,6.7,0,6.7,0c0.1,0,0.2,0,0.2,0.1s0,0.2-0.1,0.2C19.8,24,18.6,24.2,16.7,24.2"/>
	<g>
		<defs>
			<rect id="SVGID_00000167362777786030676620000000077078961747921333_" x="6.4" y="18.3" width="11.5" height="3.8"/>
		</defs>
		<clipPath id="SVGID_00000055671712666806307500000011251002269747236519_">
			<use xlink:href="#SVGID_00000167362777786030676620000000077078961747921333_"  style="overflow:visible;"/>
		</clipPath>
		<g style="clip-path:url(#SVGID_00000055671712666806307500000011251002269747236519_);">
			<path class="st1" d="M16.1,21.9c-0.9,0-2.3-0.1-4-0.6c-3.1-0.9-4.8-2.1-5.5-2.6l-0.1,0c-0.1-0.1-0.1-0.2,0-0.2
				c0.1-0.1,0.1-0.1,0.2,0l0.1,0c0.7,0.5,2.3,1.6,5.4,2.5c3.1,0.9,5.3,0.5,5.3,0.5c0.1,0,0.2,0,0.2,0.1c0,0.1,0,0.2-0.1,0.2
				C17.5,21.8,17,21.9,16.1,21.9"/>
		</g>
	</g>
	<path class="st1" d="M15.7,19.5c-0.6,0-2-0.1-4.1-1c-2.4-1-3.7-2.1-4.5-2.8L7,15.6c-0.1-0.1-0.1-0.2,0-0.2c0.1-0.1,0.2-0.1,0.2,0
		l0.2,0.1c0.8,0.7,2.1,1.7,4.4,2.7c2.6,1.1,4.2,0.9,4.2,0.9c0.1,0,0.2,0.1,0.2,0.1c0,0.1-0.1,0.2-0.1,0.2
		C16,19.4,15.9,19.5,15.7,19.5"/>
	<path class="st1" d="M15,17c-0.3,0-1.3-0.1-3.4-1c-1.6-0.7-2.9-2-3.5-2.8c-0.1-0.1,0-0.2,0-0.2c0.1-0.1,0.2,0,0.2,0
		c0.6,0.8,1.9,2,3.4,2.7c2.3,1,3.3,1,3.3,1c0.1,0,0.2,0.1,0.2,0.1C15.2,16.9,15.2,17,15,17C15.1,17,15.1,17,15,17"/>
	<path class="st1" d="M14.7,14.7C14.7,14.7,14.7,14.7,14.7,14.7c-0.4-0.1-1.5-0.5-2.6-1.3c-0.9-0.6-2.3-1.8-2.7-2.5
		c0-0.1,0-0.2,0.1-0.2c0.1,0,0.2,0,0.2,0.1c0.3,0.6,1.7,1.8,2.6,2.3c1,0.7,2.1,1.1,2.5,1.2c0.1,0,0.1,0.1,0.1,0.2
		C14.8,14.6,14.8,14.7,14.7,14.7"/>
	<path class="st1" d="M14.7,12.4C14.7,12.4,14.7,12.4,14.7,12.4c-0.1,0-1.1-0.5-2.2-1.4c-0.9-0.8-1.4-1.5-1.5-1.7
		c0-0.1,0-0.2,0.1-0.2s0.2,0,0.2,0.1c0,0.1,0.5,0.8,1.4,1.6c1,0.9,2,1.4,2,1.4c0.1,0,0.1,0.1,0.1,0.2C14.8,12.3,14.8,12.4,14.7,12.4
		"/>
	<path class="st1" d="M15.3,9.5C15.2,9.5,15.2,9.5,15.3,9.5c-0.5-0.2-1.3-0.9-1.8-1.7c0-0.1,0-0.2,0-0.2c0.1-0.1,0.2,0,0.2,0
		c0.5,0.7,1.2,1.3,1.6,1.6c0.1,0,0.1,0.1,0.1,0.2C15.4,9.4,15.3,9.5,15.3,9.5"/>
	<path class="st1" d="M15.9,26.8c-0.5,0-1.1,0-1.7-0.1c-2.5-0.2-4.8-0.8-6.2-1.6c-0.1,0-0.1-0.1-0.1-0.2c0-0.1,0.1-0.1,0.2-0.1
		c1.3,0.8,3.6,1.3,6.1,1.6c2.4,0.2,4.3-0.1,4.3-0.1c0.1,0,0.2,0,0.2,0.1c0,0.1,0,0.2-0.1,0.2C18.6,26.6,17.5,26.8,15.9,26.8"/>
	<path class="st1" d="M38.6,15.6c-0.6,0-1.2,0.3-1.7,0.8c-0.6,0.7-0.9,1.6-0.7,2.7c0.2,1.4,1.1,2.7,2.1,3.3c0.1,0.1,0.2,0.1,0.3,0.2
		c0.9-1,1.5-2.3,1.8-3.8c0.3-1.4-0.2-2.5-1.1-3C39.1,15.7,38.9,15.6,38.6,15.6z M28.3,26.6c-5,0-8.2-2.3-9.8-3.8
		c0,0-3.1-2.9-3.7-6.7c0,0-0.8-3.7,0.7-7.6c0.6-1.4,1.1-2.1,1.1-2.1c0.1-0.1,0.2-0.1,0.2,0c0.1,0.1,0.1,0.2,0,0.2
		c0,0-0.6,0.7-1.1,2.1c-1.5,3.8-0.7,7.4-0.7,7.4c0.6,3.7,3.6,6.5,3.6,6.5c1.9,1.8,6,4.6,12.6,3.4c3.2-0.6,5.5-1.6,7-3.2
		c-0.1,0-0.2-0.1-0.2-0.1c-1.1-0.7-2.1-2.1-2.3-3.5c-0.2-1.2,0.1-2.2,0.8-3c0.8-0.9,1.9-1.1,2.8-0.7c1,0.5,1.5,1.8,1.2,3.3
		c-0.3,1.5-0.9,2.8-1.8,3.9c1.8,0.8,4.3,0.7,5.7-0.9c0.8-0.9,1.1-2.2,0.9-3.3c0-0.1,0-0.2,0.1-0.2c0.1,0,0.2,0,0.2,0.1
		c0.2,1.3-0.1,2.6-1,3.6c-1.5,1.8-4.2,1.8-6.1,1c-1.6,1.7-4,2.8-7.3,3.3C30.3,26.5,29.3,26.6,28.3,26.6"/>
	<path class="st1" d="M13.9,24.1C13.9,24.1,13.9,24.1,13.9,24.1c-4-0.3-6.5-1.2-7-1.5c-0.1,0-0.1-0.1,0-0.2c0-0.1,0.1-0.1,0.2,0
		c0.4,0.3,2.8,1.1,6.8,1.5c0.1,0,0.2,0.1,0.1,0.2C14,24,14,24.1,13.9,24.1"/>
	<path class="st1" d="M23.4,23.3C23.4,23.3,23.3,23.3,23.4,23.3c-3.3-1.2-5-4.4-5.3-5.1c0-0.1,0-0.2,0.1-0.2c0.1,0,0.2,0,0.2,0.1
		c0.8,1.7,2.6,4,5,4.9c0.1,0,0.1,0.1,0.1,0.2C23.5,23.3,23.4,23.3,23.4,23.3"/>
	<path class="st1" d="M15.2,31.3c-0.1,0-0.2-0.1-0.2-0.1c0-0.1,0.1-0.2,0.1-0.2c2-0.1,5.2-1.7,8.6-3.4c1.2-0.6,2.4-1.2,3.6-1.8
		c4.9-2.3,4.5-7.8,4.5-7.8c0-0.1,0.1-0.2,0.1-0.2c0.1,0,0.2,0.1,0.2,0.1c0,0.1,0.5,5.8-4.6,8.2c-1.2,0.6-2.4,1.2-3.6,1.8
		C20.5,29.5,17.3,31.1,15.2,31.3C15.2,31.3,15.2,31.3,15.2,31.3"/>
	<path class="st1" d="M14.7,13.7C14.7,13.7,14.6,13.7,14.7,13.7c-1.8-0.2-4.2-1.6-5.2-2.6c-0.1-0.1-0.1-0.2,0-0.2
		c0.1-0.1,0.2-0.1,0.2,0c0.9,0.9,3.3,2.3,5,2.5c0.1,0,0.1,0.1,0.1,0.2C14.8,13.7,14.7,13.7,14.7,13.7"/>
	<path class="st1" d="M16,21.9C16,21.9,16,21.9,16,21.9c-1.4,0-2.2-0.5-3.2-1.2c-0.6-0.4-1.3-0.8-2.2-1.2c-1.5-0.7-2.1-0.5-2.5-0.3
		c-0.2,0.1-0.5,0.2-0.8,0c-0.1,0-0.1-0.1-0.1-0.2c0-0.1,0.1-0.1,0.2-0.1C7.7,19,7.8,19,8,18.9c0.4-0.2,1.1-0.5,2.7,0.3
		c0.9,0.4,1.6,0.8,2.2,1.2c1,0.7,1.8,1.1,3.1,1.2c0.1,0,0.2,0.1,0.2,0.2C16.2,21.8,16.1,21.9,16,21.9"/>
	<path class="st1" d="M27.7,17.5C27.7,17.5,27.7,17.5,27.7,17.5c-0.1,0-2.6-0.2-3.9-2.8c-1-1.9-0.7-4.4,0.9-7.2
		c0-0.1,0.1-0.1,0.2-0.1c0.1,0,0.1,0.1,0.1,0.2c-1.6,2.8-1.9,5.1-0.9,6.9c1.3,2.4,3.6,2.7,3.7,2.7c0.1,0,0.2,0.1,0.1,0.2
		C27.8,17.4,27.7,17.5,27.7,17.5"/>
	<path class="st1" d="M28.7,13.9C28.6,13.9,28.6,13.9,28.7,13.9c-0.4-0.2-0.7-0.6-0.8-1.1c-0.2-0.7,0-1.8,0.6-2.5
		c0.1-0.1,0.2-0.1,0.2,0c0.1,0.1,0.1,0.2,0,0.2c-0.6,0.6-0.7,1.6-0.5,2.3c0.1,0.4,0.3,0.7,0.5,0.9c0.1,0,0.1,0.1,0.1,0.2
		C28.8,13.9,28.7,13.9,28.7,13.9"/>
	<g>
		<g transform="translate(151.402641, 241.735254)">
			<g>
				<path class="st1" d="M-98.5-207.2c0.8,0.2,1.7,0.2,2.5-0.1c0.5-0.2,1-0.4,1.5-0.7c1-0.6,1.9-1.3,2.7-2c1.8-1.5,3.5-3.2,5.2-4.9
					c1.1-1.1,2.2-2.3,3.3-3.4c1.1-1,2.1-2,3.2-3.1c0.2-0.3,0.5-0.5,0.7-0.8c-0.1-0.2-0.2-0.2-0.3-0.2c-0.1,0-0.2,0-0.3,0.1
					c0,0-0.1,0.1-0.2,0.2c-0.8,0.8-1.5,1.6-2.3,2.3c-1.4,1.4-2.8,2.9-4.2,4.3c-1.6,1.7-3.3,3.5-5.2,5c-1,0.8-2,1.6-3.2,2.2
					c-0.7,0.4-1.5,0.7-2.3,0.8c-0.6,0.1-1.1,0.1-1.6-0.2c-1-0.5-1.7-1.3-2.3-2.2c-0.6-1-0.8-2.2-0.8-3.3c0-1.1,0-2.2,0.2-3.2
					c0.4-2.4,1-4.8,2-7.1c0.9-2,2-3.9,3.3-5.7c1.2-1.6,2.6-3,4.2-4.2c1.3-1,2.9-1.7,4.5-2.1c0.3,0,0.7-0.1,1,0
					c0.3,0,0.4,0.1,0.5,0.4c0.1,0.3,0.1,0.6,0.1,1c-0.1,0.4-0.2,0.8-0.3,1.1c-0.8,2.1-2.1,3.9-3.9,5.4c-0.1,0.1-0.2,0.2-0.3,0.3v0.1
					c0,0,0,0,0.1,0c0.1,0,0.2,0,0.3-0.1l0.4-0.3c1.6-1.3,2.8-2.9,3.6-4.8c0.2-0.5,0.4-0.9,0.5-1.4c0.1-0.3,0.1-0.7,0-1.1
					c-0.1-0.3-0.2-0.4-0.4-0.6c-0.5-0.4-1-0.6-1.6-0.5c-1.9,0.1-3.6,0.7-5.1,1.8c-1.9,1.4-3.5,2.9-4.9,4.8c-2.1,2.8-3.6,5.9-4.5,9.3
					c-0.4,1.6-0.7,3.2-0.9,4.8c-0.1,1.4,0,2.7,0.4,4c0.5,1.5,1.4,2.6,2.9,3.4C-99.7-207.4-99.1-207.3-98.5-207.2z"/>
			</g>
		</g>
	</g>
	<g>
		<g transform="translate(218.584783, 241.735254)">
			<g>
				<path class="st1" d="M-145.7-218.6c0.5-0.3,0.8-0.7,1.2-1.2c0.2-0.3,0.4-0.4,0.7-0.3c1.1,0,2.1-0.3,3-0.8l0.9-0.6
					c0.1-0.1,0.1-0.2,0.1-0.3c-0.1-0.2-0.4-0.3-0.6-0.3l-1.4,0.7c-0.6,0.3-1.2,0.5-1.8,0.6c0,0-0.2,0-0.2,0c-0.1,0,0-0.1,0-0.2
					c0-0.1,0.1-0.3,0.2-0.4c0.4-0.6,0.7-1.3,0.8-2.1c0.1-0.3,0.1-0.6,0-1c0-0.2,0-0.4-0.2-0.5c-0.7-0.7-1.1-0.9-2-0.6l-0.3,0.1
					c-0.9,0.5-1.5,1.3-1.8,2.3c-0.1,0.3-0.2,0.6-0.1,0.8c0.1,0.3,0,0.7-0.1,1c-0.2,0.5-0.3,1.1-0.3,1.6c0,0.3,0.1,0.5,0.3,0.7
					C-146.7-218.2-146.2-218.2-145.7-218.6z M-144.8-220.7c-0.3,0-0.7-0.2-1-0.3c-0.4-0.2-0.4-0.3-0.3-0.7c0,0,0-0.1,0-0.1
					c0.1-0.2,0.1-0.3,0-0.4c-0.1-0.1-0.1-0.2-0.1-0.3c0.3-0.9,0.9-1.6,1.7-2.2c0.3-0.2,0.6-0.3,0.9-0.3c0.1,0,0.3,0.1,0.3,0.3
					c0,0.2,0.1,0.4,0.1,0.5c0,0.7-0.2,1.3-0.4,1.9c-0.2,0.6-0.5,1.1-0.8,1.6C-144.5-220.7-144.6-220.6-144.8-220.7z M-146.3-218.8
					c-0.2,0-0.3,0-0.3-0.2c-0.1-0.6,0-1.3,0.3-1.9c0-0.1,0.1-0.1,0.2,0c0.3,0.3,0.7,0.5,1.1,0.6l0.2,0.1
					C-145.1-219.7-145.8-219.1-146.3-218.8z"/>
			</g>
		</g>
	</g>
	<g>
		<g transform="translate(124.336066, 180.35388)">
			<g>
				<path d="M-81.9-174.1v-0.1c0-0.6-0.1-1.1-0.3-1.5c-0.2-0.4-0.5-0.5-1-0.5h-3v4.5h0.8c0.2,0,0.4-0.1,0.5-0.2
					c0.1-0.1,0.2-0.3,0.2-0.5v-0.8h0.2v3.2h-0.2v-0.9c0-0.2-0.1-0.4-0.2-0.5c-0.1-0.1-0.3-0.2-0.5-0.2h-0.8v5.4h1.2v0.2h-3.5v-0.2
					h1.2v-10.1h-1.2v-0.2h5.9c0.1,0,0.2,0,0.3-0.1c0.1,0,0.1-0.1,0.2-0.2c0-0.1,0.1-0.1,0.1-0.2c0-0.1,0-0.1,0-0.2h0.1v2.9H-81.9z"
					/>
			</g>
		</g>
	</g>
	<g>
		<g transform="translate(161.101691, 180.35388)">
			<g>
				<path d="M-106.2-166v-0.2h1.2l-1.4-4.3h-2.6l-1.4,4.3h1.2v0.2h-2.3v-0.2h0.9l3.4-10.6l3.4,10.6h1.1v0.2H-106.2z M-107.7-174.5
					l-1.3,3.9h2.5L-107.7-174.5z"/>
			</g>
		</g>
	</g>
	<g>
		<g transform="translate(201.633726, 180.35388)">
			<g>
				<path d="M-129-168.7c0,0.3-0.1,0.7-0.2,1c-0.1,0.3-0.3,0.6-0.5,0.8c-0.2,0.2-0.5,0.4-0.9,0.6c-0.4,0.2-0.8,0.2-1.2,0.2h-4.2
					v-0.2h1.2v-10.1h-1.2v-0.2h3c0.4,0,0.8,0.1,1.2,0.2c0.3,0.1,0.6,0.3,0.8,0.5c0.2,0.2,0.4,0.5,0.5,0.8c0.1,0.3,0.2,0.6,0.2,0.9
					c0,0.3-0.1,0.6-0.2,0.9c-0.1,0.3-0.3,0.5-0.5,0.8c-0.2,0.2-0.5,0.4-0.8,0.5c-0.3,0.1-0.7,0.2-1.1,0.2h-0.7v0.5h1.8
					c0.5,0,0.9,0.1,1.2,0.2c0.4,0.1,0.6,0.3,0.9,0.6c0.2,0.2,0.4,0.5,0.5,0.8C-129-169.3-129-169-129-168.7z M-131.3-174.1
					c0-0.3,0-0.5-0.1-0.8c-0.1-0.3-0.2-0.5-0.4-0.7c-0.2-0.2-0.4-0.4-0.7-0.5c-0.3-0.1-0.6-0.2-1-0.2v4.4h0.1c0.3,0,0.7-0.1,0.9-0.2
					c0.3-0.1,0.5-0.3,0.7-0.5c0.2-0.2,0.3-0.4,0.4-0.7C-131.4-173.5-131.3-173.8-131.3-174.1z M-130.1-168.7c0-0.3-0.1-0.6-0.2-0.9
					c-0.1-0.3-0.3-0.5-0.5-0.8c-0.2-0.2-0.5-0.4-0.9-0.5c-0.3-0.1-0.8-0.2-1.2-0.2h-0.7v4.9h0.7c0.5,0,0.9-0.1,1.2-0.2
					c0.3-0.1,0.6-0.3,0.9-0.5c0.2-0.2,0.4-0.5,0.5-0.8C-130.2-168-130.1-168.3-130.1-168.7z"/>
			</g>
		</g>
	</g>
	<g>
		<g transform="translate(239.905913, 180.35388)">
			<g>
				<path d="M-150.3-166.5c-0.1,0.2-0.3,0.3-0.5,0.4c-0.2,0.1-0.5,0.2-0.8,0.2c-0.4,0-0.7-0.1-1-0.2c-0.3-0.2-0.6-0.4-0.8-0.6
					c-0.2-0.3-0.4-0.5-0.6-0.8c-0.2-0.3-0.3-0.6-0.4-0.9c-0.1-0.2-0.2-0.5-0.2-0.8c-0.1-0.3-0.2-0.6-0.3-0.8
					c-0.1-0.3-0.2-0.5-0.4-0.8c-0.1-0.3-0.3-0.5-0.5-0.7c-0.1,0-0.1-0.1-0.3-0.2c-0.1-0.1-0.3-0.1-0.4-0.1h-0.6v5.5h1.2v0.2h-3.5
					v-0.2h1.2v-10.1h-1.2v-0.2h4.1c0.5,0,0.9,0.1,1.2,0.2c0.3,0.1,0.6,0.3,0.8,0.6c0.2,0.2,0.4,0.5,0.5,0.8c0.1,0.3,0.1,0.6,0.1,0.9
					c0,0.2,0,0.5-0.1,0.7c-0.1,0.3-0.2,0.5-0.4,0.7c-0.2,0.2-0.5,0.4-0.8,0.6c-0.3,0.2-0.8,0.2-1.3,0.2h-0.2
					c0.2,0.1,0.4,0.2,0.6,0.3c0.2,0.1,0.4,0.3,0.6,0.5c0.2,0.2,0.4,0.4,0.5,0.7c0.2,0.3,0.3,0.6,0.5,1c0.2,0.5,0.3,0.9,0.4,1.3
					c0.1,0.4,0.3,0.7,0.4,1c0.1,0.3,0.3,0.5,0.5,0.7c0.2,0.2,0.4,0.2,0.7,0.2c0.2,0,0.3,0,0.5-0.1
					C-150.6-166.2-150.5-166.4-150.3-166.5L-150.3-166.5z M-153.9-174c0-0.3,0-0.5-0.1-0.8c-0.1-0.3-0.2-0.5-0.4-0.7
					c-0.2-0.2-0.4-0.4-0.7-0.5c-0.3-0.1-0.6-0.2-1-0.2h-1v4.4h1.2c0.4,0,0.7-0.1,0.9-0.2c0.3-0.1,0.5-0.3,0.6-0.5
					c0.2-0.2,0.3-0.4,0.4-0.7C-154-173.6-153.9-173.8-153.9-174z"/>
			</g>
		</g>
	</g>
	<g>
		<g transform="translate(280.437954, 180.35388)">
			<g>
				<path d="M-184.3-166v-0.2h1.2v-10.1h-1.2v-0.2h3.5v0.2h-1.2v10.1h1.2v0.2H-184.3z"/>
			</g>
		</g>
	</g>
</g>
</svg>
