<?xml version="1.0" encoding="utf-8"?>
<!-- Generator: Adobe Illustrator 26.0.1, SVG Export Plug-In . SVG Version: 6.00 Build 0)  -->
<svg version="1.1" id="Layer_1" xmlns="http://www.w3.org/2000/svg" xmlns:xlink="http://www.w3.org/1999/xlink" x="0px" y="0px"
	 viewBox="0 0 180.1 48.1" style="enable-background:new 0 0 180.1 48.1;" xml:space="preserve">
<style type="text/css">
	.st0{clip-path:url(#SVGID_00000000182568677640891230000011414353100639394441_);}
	.st1{fill:#4B0082;}
	.st2{clip-path:url(#SVGID_00000103963437501257042780000014475171757892270243_);}
	.st3{clip-path:url(#SVGID_00000110437793481625130140000001627769994985253769_);}
</style>
<g>
	<g>
		<defs>
			<rect id="SVGID_1_" x="10.8" y="5.6" width="37.3" height="37.1"/>
		</defs>
		<clipPath id="SVGID_00000099641392812323548480000016524781434079618998_">
			<use xlink:href="#SVGID_1_"  style="overflow:visible;"/>
		</clipPath>
		<g style="clip-path:url(#SVGID_00000099641392812323548480000016524781434079618998_);">
			<path class="st1" d="M29.2,6c-9.9,0-18,8.1-18,18.1c0,10,8.1,18.1,18,18.1s18-8.1,18-18.1C47.2,14.1,39.2,6,29.2,6z M29.2,42.6
				c-10.2,0-18.5-8.3-18.5-18.5c0-10.2,8.3-18.5,18.5-18.5s18.5,8.3,18.5,18.5C47.7,34.3,39.4,42.6,29.2,42.6"/>
		</g>
	</g>
	<g>
		<defs>
			<rect id="SVGID_00000178897275626720234530000003572033552870779550_" x="25.4" y="5.6" width="10.8" height="24.1"/>
		</defs>
		<clipPath id="SVGID_00000062159522852069288630000015260312040374785979_">
			<use xlink:href="#SVGID_00000178897275626720234530000003572033552870779550_"  style="overflow:visible;"/>
		</clipPath>
		<g style="clip-path:url(#SVGID_00000062159522852069288630000015260312040374785979_);">
			<path class="st1" d="M35.7,29.4C35.7,29.4,35.6,29.4,35.7,29.4c-0.1,0-6.8-1.7-9.1-8.7c-2.4-6.9,1.4-13.4,3.1-15
				c0.1-0.1,0.2-0.1,0.3,0C30,5.8,30,5.9,29.9,6c-1.6,1.5-5.2,7.8-2.9,14.6c2.3,6.7,8.7,8.4,8.8,8.4c0.1,0,0.2,0.2,0.2,0.3
				C35.9,29.4,35.8,29.4,35.7,29.4"/>
		</g>
	</g>
	<path class="st1" d="M37.8,27.1C37.7,27.1,37.7,27.1,37.8,27.1c-0.1,0-5.9-1.5-8-6.8c-2.6-6.7,1.5-12.7,3.3-14.1
		c0.1-0.1,0.2-0.1,0.3,0c0.1,0.1,0.1,0.2,0,0.3c-1.7,1.4-5.7,7.1-3.2,13.6c2,5.1,7.6,6.6,7.6,6.6c0.1,0,0.2,0.2,0.2,0.3
		C38,27.1,37.9,27.1,37.8,27.1"/>
	<path class="st1" d="M39.9,24C39.9,24,39.9,24,39.9,24c-1.6-0.3-3.1-1-4.3-2c-3.4-2.6-3.6-6.5-3.3-9.4c0.2-1.9,1.2-4.2,2.4-5.9
		c0.1-0.1,0.2-0.1,0.3,0c0.1,0.1,0.1,0.2,0,0.3c-1.2,1.6-2.1,3.8-2.3,5.6c-0.3,2.7-0.1,6.5,3.1,9c1.2,0.9,2.6,1.6,4.1,1.9
		c0.1,0,0.2,0.1,0.2,0.3C40.1,23.9,40,24,39.9,24"/>
	<path class="st1" d="M41.3,21.2c-2,0-4.3-1.8-5-3.8c-1.4-4.3,1.4-7.2,3.6-8.1c0.1,0,0.2,0,0.3,0.1c0,0.1,0,0.2-0.1,0.3
		c-1.8,0.7-4.8,3.3-3.4,7.6c0.6,1.8,2.8,3.5,4.5,3.5c0.1,0,0.2,0.1,0.2,0.2C41.6,21.1,41.5,21.2,41.3,21.2"/>
	<path class="st1" d="M42,18.9C42,18.9,42,18.9,42,18.9c-1.3-0.5-2.1-1.3-2.5-2.7c-0.4-1.5,0.2-3.9,2.8-4.8c0.1,0,0.2,0,0.3,0.1
		c0,0.1,0,0.2-0.1,0.3c-2.4,0.8-2.9,2.9-2.5,4.2c0.4,1.3,1,2,2.1,2.4c0.1,0,0.2,0.2,0.1,0.3C42.2,18.8,42.1,18.9,42,18.9"/>
	<path class="st1" d="M16.5,37.4c-0.1,0-0.2-0.1-0.2-0.2c0-0.1,0.1-0.2,0.2-0.2c1.7,0,10.6-0.3,17.2-6.1c8.1-7.1,8.9-14.1,9.4-18.2
		c0-0.1,0.1-0.2,0.2-0.2c0.1,0,0.2,0.1,0.2,0.2C43,16.9,42.3,23.9,34,31.2C27.2,37.1,18.2,37.4,16.5,37.4"/>
	<path class="st1" d="M20.2,40.1c-0.1,0-0.2-0.1-0.2-0.2c0-0.1,0.1-0.2,0.2-0.3C23.9,39.1,31,37.5,37,32c5.3-4.8,8.2-10.5,8.2-16.3
		c0-0.1,0.1-0.2,0.2-0.2h0c0.1,0,0.2,0.1,0.2,0.2c-0.1,5.9-3,11.7-8.4,16.6C31.2,37.9,24,39.6,20.2,40.1
		C20.2,40.1,20.2,40.1,20.2,40.1"/>
	<path class="st1" d="M25,42c-0.1,0-0.2-0.1-0.2-0.2c0-0.1,0.1-0.2,0.2-0.3c1.9-0.3,8.8-1.6,15-7.4c5.2-4.9,7.1-11.9,7.1-12
		c0-0.1,0.2-0.2,0.3-0.2c0.1,0,0.2,0.2,0.2,0.3c0,0.1-1.9,7.2-7.3,12.2C34,40.4,27,41.8,25,42C25,42,25,42,25,42"/>
	<path class="st1" d="M25.4,31.5c-1.5,0-3.2-0.1-5.2-0.4c-5.4-0.8-9-3.3-9-3.4c-0.1-0.1-0.1-0.2-0.1-0.3c0.1-0.1,0.2-0.1,0.3-0.1
		c0,0,3.5,2.5,8.8,3.3c5.6,0.9,9.5,0.1,9.6,0c0.1,0,0.2,0.1,0.3,0.2c0,0.1-0.1,0.2-0.2,0.3C29.9,31.1,28.2,31.5,25.4,31.5"/>
	<g>
		<defs>
			<rect id="SVGID_00000044887096247128908770000013621419660126823090_" x="10.8" y="23.1" width="16.4" height="5.4"/>
		</defs>
		<clipPath id="SVGID_00000163061814321461213460000018243892594067603337_">
			<use xlink:href="#SVGID_00000044887096247128908770000013621419660126823090_"  style="overflow:visible;"/>
		</clipPath>
		<g style="clip-path:url(#SVGID_00000163061814321461213460000018243892594067603337_);">
			<path class="st1" d="M24.6,28.2c-1.4,0-3.3-0.2-5.7-0.9c-4.5-1.3-6.8-3-7.8-3.7L11,23.5c-0.1-0.1-0.1-0.2-0.1-0.3
				c0.1-0.1,0.2-0.1,0.3-0.1l0.1,0.1c1,0.7,3.3,2.3,7.7,3.6c4.5,1.3,7.5,0.7,7.5,0.7c0.1,0,0.2,0.1,0.3,0.2c0,0.1-0.1,0.2-0.2,0.3
				C26.5,28,25.8,28.2,24.6,28.2"/>
		</g>
	</g>
	<path class="st1" d="M24,24.7c-0.8,0-2.8-0.2-5.8-1.4c-3.4-1.4-5.3-3-6.4-4l-0.2-0.2c-0.1-0.1-0.1-0.2,0-0.3c0.1-0.1,0.2-0.1,0.3,0
		l0.2,0.2c1.1,0.9,2.9,2.5,6.3,3.9c3.8,1.6,6,1.3,6,1.3c0.1,0,0.2,0.1,0.3,0.2c0,0.1-0.1,0.2-0.2,0.3C24.4,24.7,24.3,24.7,24,24.7"
		/>
	<path class="st1" d="M23.1,21.2c-0.4,0-1.9-0.1-4.9-1.5c-2.3-1-4.1-2.8-5-4.1c-0.1-0.1-0.1-0.2,0-0.3c0.1-0.1,0.2-0.1,0.3,0
		c0.9,1.2,2.7,2.9,4.9,3.9c3.2,1.5,4.7,1.4,4.7,1.4c0.1,0,0.2,0.1,0.2,0.2S23.3,21.2,23.1,21.2C23.1,21.2,23.1,21.2,23.1,21.2"/>
	<path class="st1" d="M22.6,17.9C22.6,17.9,22.6,17.9,22.6,17.9c-0.6-0.1-2.1-0.7-3.7-1.8c-1.2-0.8-3.3-2.5-3.8-3.5
		c-0.1-0.1,0-0.2,0.1-0.3c0.1-0.1,0.2,0,0.3,0.1c0.5,0.9,2.5,2.5,3.7,3.3c1.5,1,2.9,1.6,3.5,1.7c0.1,0,0.2,0.2,0.2,0.3
		C22.8,17.8,22.7,17.9,22.6,17.9"/>
	<path class="st1" d="M22.6,14.6C22.6,14.6,22.6,14.6,22.6,14.6c-0.1,0-1.6-0.7-3.1-2.1c-1.2-1.1-2-2.2-2.1-2.4
		c-0.1-0.1,0-0.2,0.1-0.3c0.1-0.1,0.2,0,0.3,0.1c0.1,0.1,0.8,1.1,2,2.2c1.4,1.3,2.9,1.9,2.9,2c0.1,0,0.2,0.2,0.1,0.3
		C22.8,14.5,22.7,14.6,22.6,14.6"/>
	<path class="st1" d="M23.4,10.4c0,0-0.1,0-0.1,0c-0.6-0.3-1.7-1.3-2.5-2.4c-0.1-0.1,0-0.2,0.1-0.3c0.1-0.1,0.2,0,0.3,0.1
		c0.7,1,1.7,1.9,2.3,2.2c0.1,0.1,0.2,0.2,0.1,0.3C23.6,10.4,23.5,10.4,23.4,10.4"/>
	<path class="st1" d="M24.2,35.1c-0.7,0-1.5,0-2.4-0.1c-3.6-0.3-6.9-1.2-8.9-2.3c-0.1-0.1-0.1-0.2-0.1-0.3c0.1-0.1,0.2-0.1,0.3-0.1
		c1.9,1.1,5.1,1.9,8.7,2.2c3.4,0.3,6.1-0.2,6.2-0.2c0.1,0,0.2,0.1,0.3,0.2c0,0.1-0.1,0.2-0.2,0.3C28.1,34.9,26.5,35.1,24.2,35.1"/>
	<path class="st1" d="M56.7,19.2c-0.8,0-1.7,0.4-2.4,1.2c-0.9,1-1.3,2.3-1,3.9c0.3,2,1.5,3.8,3,4.7c0.1,0.1,0.3,0.2,0.4,0.2
		c1.3-1.5,2.2-3.3,2.6-5.4c0.4-1.9-0.2-3.6-1.5-4.3C57.5,19.3,57.1,19.2,56.7,19.2z M42,34.9c-7.1,0-11.7-3.2-13.9-5.4
		c0,0-4.5-4.2-5.3-9.6c0,0-1.2-5.2,1-10.8c0.8-2,1.6-3,1.6-3.1c0.1-0.1,0.2-0.1,0.3,0c0.1,0.1,0.1,0.2,0,0.3c0,0-0.8,1-1.6,2.9
		c-2.2,5.5-1,10.5-1,10.6c0.8,5.3,5.2,9.3,5.2,9.3c2.7,2.5,8.5,6.5,18,4.9c4.5-0.8,7.9-2.3,10.1-4.5c-0.1-0.1-0.2-0.1-0.3-0.2
		c-1.6-0.9-2.9-3-3.2-5c-0.3-1.7,0.2-3.2,1.2-4.2c1.2-1.3,2.7-1.6,4-1c1.5,0.8,2.2,2.6,1.8,4.8c-0.4,2.2-1.3,4-2.6,5.5
		c2.6,1.1,6.1,0.9,8.1-1.3c1.1-1.3,1.6-3.1,1.3-4.7c0-0.1,0.1-0.2,0.2-0.3c0.1,0,0.2,0.1,0.3,0.2c0.4,1.8-0.2,3.8-1.4,5.1
		c-2.2,2.5-6,2.6-8.7,1.4c-2.3,2.4-5.7,3.9-10.4,4.8C44.9,34.8,43.4,34.9,42,34.9"/>
	<path class="st1" d="M21.5,31.3C21.4,31.3,21.4,31.3,21.5,31.3c-5.7-0.5-9.2-1.7-9.9-2.2c-0.1-0.1-0.1-0.2-0.1-0.3
		c0.1-0.1,0.2-0.1,0.3-0.1c0.6,0.4,4,1.6,9.7,2.1c0.1,0,0.2,0.1,0.2,0.2C21.7,31.2,21.6,31.3,21.5,31.3"/>
	<path class="st1" d="M35,30.2C35,30.2,34.9,30.2,35,30.2c-4.8-1.7-7.1-6.3-7.5-7.2c-0.1-0.1,0-0.2,0.1-0.3c0.1-0.1,0.2,0,0.3,0.1
		c1.1,2.4,3.7,5.7,7.2,7c0.1,0,0.2,0.2,0.1,0.3C35.2,30.1,35.1,30.2,35,30.2"/>
	<path class="st1" d="M23.3,41.6c-0.1,0-0.2-0.1-0.2-0.2c0-0.1,0.1-0.2,0.2-0.2c2.9-0.2,7.5-2.5,12.3-4.9c1.7-0.8,3.4-1.7,5.2-2.5
		c7-3.2,6.4-11.1,6.4-11.2c0-0.1,0.1-0.2,0.2-0.2c0.1,0,0.2,0.1,0.2,0.2c0,0.1,0.7,8.3-6.6,11.6c-1.7,0.8-3.5,1.7-5.2,2.5
		C30.9,39.1,26.2,41.4,23.3,41.6C23.3,41.6,23.3,41.6,23.3,41.6"/>
	<path class="st1" d="M22.5,16.5C22.5,16.5,22.5,16.5,22.5,16.5c-2.6-0.3-6.1-2.3-7.4-3.7c-0.1-0.1-0.1-0.2,0-0.3
		c0.1-0.1,0.2-0.1,0.3,0c1.3,1.3,4.7,3.3,7.1,3.6c0.1,0,0.2,0.1,0.2,0.2C22.7,16.4,22.6,16.5,22.5,16.5"/>
	<path class="st1" d="M24.5,28.2C24.5,28.2,24.5,28.2,24.5,28.2c-1.9,0-3.1-0.8-4.6-1.7c-0.8-0.5-1.8-1.1-3.1-1.7
		c-2.2-1-3-0.7-3.5-0.4c-0.3,0.2-0.7,0.3-1.1,0.1C12,24.3,12,24.2,12,24.1c0.1-0.1,0.2-0.2,0.3-0.1c0.3,0.1,0.4,0.1,0.8-0.1
		c0.6-0.3,1.5-0.7,3.9,0.4c1.3,0.6,2.3,1.2,3.1,1.7c1.5,0.9,2.6,1.6,4.4,1.6c0.1,0,0.2,0.1,0.2,0.2C24.7,28.1,24.6,28.2,24.5,28.2"
		/>
	<path class="st1" d="M41.1,21.9C41.1,21.9,41.1,21.9,41.1,21.9c-0.2,0-3.7-0.3-5.6-4.1c-1.4-2.8-1-6.2,1.3-10.3
		c0.1-0.1,0.2-0.1,0.3-0.1c0.1,0.1,0.1,0.2,0.1,0.3c-2.2,3.9-2.7,7.3-1.3,9.9c1.8,3.5,5.2,3.8,5.2,3.8c0.1,0,0.2,0.1,0.2,0.2
		C41.3,21.8,41.2,21.9,41.1,21.9"/>
	<path class="st1" d="M42.5,16.8C42.5,16.8,42.4,16.8,42.5,16.8c-0.6-0.2-1-0.8-1.1-1.6c-0.2-1.1,0-2.6,0.9-3.6
		c0.1-0.1,0.2-0.1,0.3,0c0.1,0.1,0.1,0.2,0,0.3c-0.8,0.9-1,2.3-0.8,3.2c0.1,0.6,0.4,1.1,0.8,1.2c0.1,0,0.2,0.2,0.1,0.3
		C42.7,16.7,42.6,16.8,42.5,16.8"/>
	<g>
		<g transform="translate(151.402641, 241.735254)">
			<g>
				<path class="st1" d="M-74.3-195.5c1.2,0.3,2.4,0.2,3.6-0.2c0.7-0.2,1.4-0.6,2.1-1c1.4-0.9,2.7-1.8,3.9-2.8c2.6-2.2,5-4.6,7.4-7
					c1.5-1.6,3.1-3.3,4.7-4.9c1.5-1.5,3-2.9,4.5-4.4c0.3-0.4,0.7-0.7,0.9-1.2c-0.1-0.2-0.3-0.2-0.5-0.3c-0.2-0.1-0.3-0.1-0.5,0.1
					c-0.1,0.1-0.2,0.2-0.2,0.3c-1.1,1.1-2.1,2.2-3.2,3.3c-2,2-4,4.1-6,6.2c-2.4,2.5-4.8,4.9-7.4,7.1c-1.4,1.2-2.9,2.3-4.5,3.2
					c-1.1,0.6-2.1,1-3.3,1.2c-0.8,0.2-1.6,0.2-2.4-0.2c-1.4-0.7-2.5-1.8-3.3-3.1c-0.8-1.5-1.1-3.1-1.2-4.7c-0.1-1.5,0.1-3.1,0.3-4.6
					c0.6-3.5,1.5-6.8,2.8-10.1c1.2-2.9,2.8-5.6,4.8-8.1c1.7-2.2,3.7-4.3,5.9-6c1.9-1.5,4.1-2.5,6.4-3c0.5-0.1,0.9-0.1,1.4-0.1
					c0.4,0,0.6,0.1,0.7,0.6c0.1,0.4,0.2,0.9,0.1,1.4c-0.1,0.6-0.2,1.1-0.4,1.6c-1.2,3-3,5.6-5.5,7.7c-0.1,0.1-0.2,0.2-0.4,0.4v0.1
					c0,0,0.1,0.1,0.1,0.1c0.1,0,0.2,0,0.4-0.1l0.6-0.4c2.3-1.9,4-4.2,5.2-6.8c0.3-0.7,0.6-1.4,0.7-2c0.1-0.5,0.1-1-0.1-1.5
					c-0.1-0.4-0.3-0.6-0.6-0.8c-0.7-0.6-1.5-0.8-2.3-0.7c-2.7,0.2-5.1,1-7.2,2.6c-2.7,2-5,4.2-6.9,6.8c-3,4-5.1,8.4-6.4,13.3
					c-0.6,2.2-1.1,4.6-1.3,6.8c-0.2,2-0.1,3.9,0.6,5.7c0.7,2.2,2,3.8,4.1,4.9C-76-195.9-75.1-195.7-74.3-195.5z"/>
			</g>
		</g>
	</g>
	<g>
		<g transform="translate(218.584783, 241.735254)">
			<g>
				<path class="st1" d="M-112.9-211.8c0.7-0.5,1.2-1,1.7-1.7c0.2-0.4,0.6-0.6,0.9-0.5c1.6-0.1,3-0.4,4.3-1.2l1.3-0.8
					c0.1-0.1,0.2-0.2,0.2-0.4c-0.1-0.3-0.6-0.5-0.8-0.4l-2,1c-0.8,0.4-1.7,0.7-2.5,0.9c-0.1,0-0.2,0-0.3-0.1c-0.1-0.1,0-0.2,0.1-0.2
					c0.1-0.2,0.2-0.4,0.2-0.6c0.6-0.9,0.9-1.9,1.2-3c0.1-0.4,0.1-0.9,0.1-1.4c0-0.2-0.1-0.6-0.2-0.7c-1-1-1.5-1.2-2.8-0.8l-0.4,0.2
					c-1.3,0.7-2.2,1.8-2.6,3.3c-0.2,0.4-0.2,0.8-0.1,1.2c0.1,0.5,0,1-0.2,1.4c-0.3,0.7-0.4,1.5-0.4,2.3c0.1,0.4,0.1,0.7,0.4,1
					C-114.4-211.3-113.7-211.2-112.9-211.8z M-111.7-214.7c-0.5-0.1-1-0.2-1.4-0.5c-0.6-0.2-0.6-0.5-0.4-1c0-0.1,0.1-0.1,0.1-0.1
					c0.2-0.2,0.2-0.4-0.1-0.6c-0.2-0.1-0.2-0.3-0.1-0.5c0.5-1.3,1.3-2.3,2.5-3.1c0.4-0.2,0.8-0.4,1.3-0.4c0.2,0,0.4,0.1,0.4,0.4
					c0.1,0.2,0.1,0.6,0.1,0.7c0,1-0.3,1.8-0.6,2.6c-0.3,0.8-0.7,1.5-1.1,2.3C-111.2-214.7-111.5-214.6-111.7-214.7z M-113.9-212.1
					c-0.2,0.1-0.4,0-0.4-0.2c-0.1-0.9,0-1.8,0.4-2.8c0.1-0.1,0.2-0.2,0.3-0.1c0.5,0.4,1,0.7,1.5,0.9l0.3,0.2
					C-112.2-213.4-113.2-212.5-113.9-212.1z"/>
			</g>
		</g>
	</g>
	<g>
		<g transform="translate(124.336066, 180.35388)">
			<g>
				<path d="M-62.2-174.5v-0.2c0-0.9-0.1-1.6-0.4-2.1c-0.2-0.5-0.7-0.8-1.4-0.8h-4.3v6.4h1.2c0.3,0,0.5-0.1,0.7-0.3
					c0.2-0.2,0.2-0.4,0.2-0.7v-1.1h0.2v4.6h-0.2v-1.3c0-0.3-0.1-0.5-0.3-0.7c-0.2-0.2-0.4-0.3-0.8-0.3h-1.1v7.8h1.7v0.2h-5v-0.2h1.7
					v-14.4h-1.7v-0.2h8.4c0.2,0,0.3,0,0.5-0.1c0.1-0.1,0.2-0.1,0.3-0.2c0.1-0.1,0.1-0.2,0.1-0.3c0-0.1,0.1-0.2,0.1-0.2h0.2v4.2
					H-62.2z"/>
			</g>
		</g>
	</g>
	<g>
		<g transform="translate(161.101691, 180.35388)">
			<g>
				<path d="M-81.1-163v-0.2h1.7l-2-6.1h-3.7l-2,6.1h1.7v0.2h-3.3v-0.2h1.4l4.9-15.1l4.8,15.1h1.6v0.2H-81.1z M-83.3-175.1l-1.8,5.5
					h3.6L-83.3-175.1z"/>
			</g>
		</g>
	</g>
	<g>
		<g transform="translate(201.633726, 180.35388)">
			<g>
				<path d="M-96.3-166.7c0,0.5-0.1,0.9-0.2,1.4c-0.2,0.5-0.4,0.9-0.7,1.2c-0.3,0.3-0.8,0.6-1.3,0.9c-0.5,0.2-1.1,0.3-1.8,0.3h-5.9
					v-0.2h1.7v-14.4h-1.7v-0.2h4.3c0.6,0,1.2,0.1,1.6,0.3c0.5,0.2,0.9,0.4,1.2,0.8c0.3,0.3,0.5,0.7,0.7,1.1c0.2,0.4,0.2,0.8,0.2,1.2
					c0,0.4-0.1,0.8-0.2,1.2c-0.2,0.4-0.4,0.8-0.7,1.1c-0.3,0.3-0.7,0.6-1.2,0.8c-0.5,0.2-1,0.3-1.6,0.3h-1v0.7h2.6
					c0.7,0,1.3,0.1,1.8,0.3c0.5,0.2,0.9,0.5,1.3,0.8c0.3,0.3,0.6,0.7,0.8,1.2C-96.4-167.7-96.3-167.2-96.3-166.7z M-99.7-174.5
					c0-0.4-0.1-0.8-0.2-1.2c-0.1-0.4-0.3-0.7-0.6-1c-0.3-0.3-0.6-0.5-1-0.7c-0.4-0.2-0.9-0.3-1.5-0.3v6.2h0.2c0.5,0,0.9-0.1,1.3-0.3
					c0.4-0.2,0.7-0.4,1-0.7c0.3-0.3,0.5-0.6,0.6-1C-99.8-173.7-99.7-174.1-99.7-174.5z M-98-166.7c0-0.5-0.1-0.9-0.2-1.3
					c-0.2-0.4-0.4-0.8-0.7-1.1c-0.3-0.3-0.7-0.6-1.2-0.7c-0.5-0.2-1.1-0.3-1.7-0.3h-1v6.9h1.1c0.7,0,1.3-0.1,1.7-0.3
					c0.5-0.2,0.9-0.4,1.2-0.8c0.3-0.3,0.6-0.7,0.7-1.1C-98.1-165.8-98-166.2-98-166.7z"/>
			</g>
		</g>
	</g>
	<g>
		<g transform="translate(239.905913, 180.35388)">
			<g>
				<path d="M-110.4-163.6c-0.2,0.2-0.4,0.4-0.7,0.6c-0.3,0.2-0.7,0.2-1.2,0.2c-0.5,0-1-0.1-1.5-0.3c-0.4-0.2-0.8-0.5-1.2-0.9
					c-0.3-0.4-0.6-0.8-0.9-1.2c-0.2-0.4-0.4-0.9-0.6-1.3c-0.1-0.3-0.2-0.7-0.3-1.1c-0.1-0.4-0.2-0.8-0.4-1.2
					c-0.2-0.4-0.3-0.8-0.5-1.1c-0.2-0.4-0.4-0.7-0.7-0.9c-0.1-0.1-0.2-0.1-0.4-0.2c-0.2-0.1-0.4-0.1-0.6-0.1h-0.9v7.9h1.7v0.2h-5
					v-0.2h1.7v-14.4h-1.7v-0.2h5.8c0.7,0,1.3,0.1,1.7,0.3c0.5,0.2,0.9,0.5,1.2,0.8c0.3,0.3,0.5,0.7,0.7,1.1c0.1,0.4,0.2,0.8,0.2,1.2
					c0,0.3-0.1,0.7-0.2,1c-0.1,0.4-0.3,0.7-0.6,1.1c-0.3,0.3-0.7,0.6-1.2,0.8c-0.5,0.2-1.1,0.3-1.8,0.3h-0.3
					c0.3,0.1,0.6,0.3,0.9,0.5c0.3,0.2,0.6,0.4,0.9,0.6c0.3,0.3,0.5,0.6,0.8,1c0.2,0.4,0.5,0.9,0.7,1.4c0.2,0.7,0.5,1.3,0.6,1.9
					c0.2,0.6,0.4,1.1,0.6,1.5c0.2,0.4,0.4,0.7,0.7,1c0.3,0.2,0.6,0.3,1.1,0.3c0.2,0,0.5-0.1,0.8-0.2
					C-110.9-163.3-110.7-163.5-110.4-163.6L-110.4-163.6z M-115.6-174.4c0-0.4-0.1-0.7-0.2-1.1c-0.1-0.4-0.3-0.7-0.6-1
					c-0.3-0.3-0.6-0.6-1-0.8c-0.4-0.2-0.9-0.3-1.4-0.3h-1.4v6.2h1.7c0.5,0,1-0.1,1.3-0.3c0.4-0.2,0.7-0.4,0.9-0.8
					c0.2-0.3,0.4-0.6,0.5-1C-115.7-173.7-115.6-174.1-115.6-174.4z"/>
			</g>
		</g>
	</g>
	<g>
		<g transform="translate(280.437954, 180.35388)">
			<g>
				<path d="M-141.7-163v-0.2h1.7v-14.4h-1.7v-0.2h5v0.2h-1.7v14.4h1.7v0.2H-141.7z"/>
			</g>
		</g>
	</g>
</g>
</svg>
